<svg width="100" height="38" viewBox="0 0 100 38" fill="none" xmlns="http://www.w3.org/2000/svg">
<g clip-path="url(#clip0)">
<path d="M51.6281 12.379L56.3857 12.0696C56.4942 12.8524 56.6932 13.4349 57.0188 13.8536C57.5434 14.509 58.267 14.8366 59.2258 14.8366C59.9313 14.8366 60.492 14.6728 60.8719 14.3269C61.2337 14.0539 61.4508 13.6169 61.4508 13.1618C61.4508 12.7249 61.2518 12.3062 60.9081 12.0332C60.5463 11.7055 59.6961 11.3778 58.3575 11.0865C56.1686 10.595 54.5948 9.93965 53.6722 9.10224C52.7496 8.31945 52.225 7.17257 52.2612 5.95287C52.2612 5.11547 52.5145 4.27806 52.9848 3.58629C53.5275 2.8035 54.2692 2.18455 55.1556 1.83866C56.1143 1.41996 57.453 1.20151 59.1353 1.20151C61.1975 1.20151 62.7714 1.5838 63.8567 2.36659C64.9421 3.13118 65.5934 4.36908 65.7923 6.0621L61.089 6.33516C60.9624 5.60699 60.7091 5.07906 60.2931 4.73317C59.877 4.38729 59.3343 4.22345 58.6288 4.22345C58.0499 4.22345 57.6158 4.35088 57.3263 4.58754C57.055 4.80599 56.8741 5.13367 56.8922 5.49776C56.8922 5.77083 57.0369 6.02569 57.254 6.18953C57.4892 6.40798 58.0499 6.60823 58.9363 6.79027C61.1252 7.26359 62.6809 7.73691 63.6397 8.22843C64.5984 8.71995 65.2858 9.32069 65.7019 10.0307C66.136 10.7588 66.3531 11.5963 66.335 12.4519C66.335 13.4713 66.0456 14.4908 65.4667 15.3464C64.8698 16.2384 64.0376 16.9302 63.0608 17.3489C62.0297 17.804 60.7272 18.0406 59.1715 18.0406C56.4219 18.0406 54.5224 17.5127 53.4551 16.4386C52.3878 15.3646 51.7547 14.0174 51.6281 12.379ZM1.13965 17.7676V1.49278H9.47902C11.0166 1.49278 12.2106 1.62021 13.0246 1.89328C13.8206 2.14814 14.5261 2.67607 14.9964 3.38604C15.521 4.16883 15.7742 5.07906 15.7562 6.02569C15.8104 7.62768 14.9964 9.15685 13.6035 9.95785C13.0608 10.2673 12.4638 10.4858 11.8488 10.595C12.301 10.7224 12.7533 10.9409 13.1512 11.1958C13.4588 11.4506 13.712 11.7419 13.9472 12.0514C14.2185 12.3608 14.4537 12.7067 14.6527 13.0708L17.0767 17.7858H11.3965L8.71925 12.7795C8.37554 12.1424 8.08611 11.7237 7.81476 11.5234C7.45297 11.2686 7.01881 11.1411 6.58466 11.1411H6.15051V17.7494H1.13965V17.7676ZM6.15051 8.08279H8.267C8.71925 8.04638 9.1534 7.97356 9.58755 7.86434C9.91317 7.80972 10.2026 7.62768 10.4016 7.35461C10.89 6.69925 10.8177 5.77083 10.2207 5.20649C9.89508 4.93342 9.26194 4.78778 8.35745 4.78778H6.15051V8.08279ZM0 31.7122L4.7576 31.4027C4.86614 32.1855 5.06512 32.768 5.39074 33.1867C5.89725 33.8421 6.63893 34.188 7.59769 34.188C8.30318 34.188 8.86397 34.0241 9.24385 33.6783C9.60564 33.387 9.82272 32.9683 9.82272 32.5132C9.82272 32.0763 9.62373 31.6576 9.28003 31.3845C8.91823 31.0568 8.06802 30.7291 6.71129 30.4379C4.52243 29.9463 2.94863 29.291 2.02605 28.4536C1.10347 27.6708 0.578871 26.5239 0.615051 25.3042C0.615051 24.4668 0.868307 23.6294 1.33864 22.9376C1.88133 22.1548 2.62301 21.5359 3.50941 21.19C4.46816 20.7713 5.8068 20.5528 7.48915 20.5528C9.55138 20.5528 11.1252 20.9351 12.2106 21.7179C13.2959 22.5007 13.9291 23.7204 14.1281 25.4134L9.42475 25.6865C9.29812 24.9583 9.04486 24.4304 8.6288 24.0845C8.23083 23.7386 7.67004 23.5748 6.96454 23.593C6.38567 23.593 5.95152 23.7204 5.66208 23.9753C5.37265 24.1937 5.20984 24.5214 5.22793 24.8855C5.22793 25.1586 5.37265 25.4134 5.58973 25.5773C5.82489 25.7957 6.38567 25.996 7.27207 26.178C9.46093 26.6513 11.0166 27.1246 11.9754 27.6162C12.9342 28.1077 13.6216 28.7084 14.0376 29.4184C14.4718 30.1466 14.6889 30.984 14.6889 31.8214C14.6889 32.8408 14.3813 33.8421 13.8206 34.6977C13.2236 35.5897 12.3915 36.2815 11.4146 36.7002C10.3835 37.1553 9.08104 37.392 7.52533 37.392C4.77569 37.392 2.87627 36.864 1.80897 35.79C0.741679 34.6977 0.144718 33.3506 0 31.7122H0Z" fill="#7D7171"/>
<path d="M24.0593 30.4378L28.437 31.7668C28.2019 32.8772 27.7135 33.9331 27.0441 34.8615C26.4291 35.6807 25.615 36.3179 24.6925 36.7366C23.7518 37.1553 22.5579 37.3737 21.1107 37.3737C19.356 37.3737 17.9088 37.1189 16.8053 36.6091C15.6838 36.0994 14.725 35.1892 13.911 33.8967C13.097 32.6042 12.699 30.9476 12.699 28.9269C12.699 26.2326 13.4045 24.1573 14.8336 22.7192C16.2627 21.281 18.2706 20.5528 20.8755 20.5528C22.9197 20.5528 24.5116 20.9715 25.6874 21.7907C26.8451 22.6281 27.7134 23.9024 28.2923 25.6137L23.8784 26.5967C23.7699 26.2144 23.6071 25.8321 23.39 25.5044C23.1187 25.1221 22.775 24.8309 22.3589 24.6124C21.9428 24.394 21.4725 24.3029 21.0022 24.3029C19.8625 24.3029 18.9942 24.7581 18.3972 25.6865C17.945 26.36 17.7098 27.4341 17.7098 28.8905C17.7098 30.6927 17.9812 31.9306 18.5239 32.6042C19.0666 33.2777 19.8263 33.6054 20.8213 33.6054C21.78 33.6054 22.5036 33.3323 22.992 32.8044C23.4805 32.2401 23.8423 31.4573 24.0593 30.4378ZM34.28 20.8259H39.2728V26.5239H44.7359V20.8259H49.7648V37.1007H44.7359V30.5107H39.2728V37.1007H34.28V20.8259Z" fill="#7D7171"/>
<path d="M49.0774 28.9633C49.0774 26.3054 49.8191 24.2301 51.2844 22.7556C52.7496 21.281 54.8119 20.5346 57.4349 20.5346C60.1302 20.5346 62.1925 21.2628 63.6577 22.7192C65.123 24.1755 65.8466 26.2144 65.8466 28.8359C65.8466 30.7473 65.521 32.2947 64.8879 33.5144C64.2728 34.7159 63.314 35.6989 62.1382 36.3543C60.9262 37.0279 59.4248 37.3738 57.6339 37.3738C55.8068 37.3738 54.3054 37.0825 53.1114 36.4999C51.8813 35.881 50.8683 34.9162 50.199 33.7329C49.4573 32.4585 49.0774 30.8748 49.0774 28.9633ZM54.0702 28.9815C54.0702 30.6199 54.3777 31.8032 54.9747 32.5314C55.5716 33.2413 56.4038 33.6054 57.453 33.6054C58.5203 33.6054 59.3524 33.2595 59.9494 32.5496C60.5463 31.8396 60.8357 30.5835 60.8357 28.763C60.8357 27.2339 60.5282 26.1052 59.9132 25.4134C59.2981 24.7035 58.466 24.3576 57.4168 24.3576C56.4942 24.3212 55.6078 24.7217 54.9928 25.4316C54.3777 26.1416 54.0702 27.3249 54.0702 28.9815ZM70.966 28.9633C70.966 26.3054 71.7077 24.2301 73.1729 22.7556C74.6382 21.281 76.7004 20.5346 79.3235 20.5346C82.0188 20.5346 84.0991 21.2628 85.5463 22.7192C86.9935 24.1755 87.7352 26.2144 87.7352 28.8359C87.7352 30.7473 87.4096 32.2947 86.7764 33.5144C86.1614 34.7159 85.2026 35.6989 84.0268 36.3543C82.8148 37.0279 81.3133 37.3738 79.5224 37.3738C77.6954 37.3738 76.1939 37.0825 75 36.4999C73.7699 35.881 72.7569 34.9162 72.0876 33.7329C71.3459 32.4585 70.966 30.8748 70.966 28.9633ZM75.9588 28.9815C75.9588 30.6199 76.2663 31.8032 76.8632 32.5314C77.4602 33.2413 78.2923 33.6054 79.3415 33.6054C80.4088 33.6054 81.241 33.2595 81.8379 32.5496C82.4349 31.8396 82.7243 30.5835 82.7243 28.763C82.7243 27.2339 82.4168 26.1052 81.8017 25.4134C81.1867 24.7035 80.3546 24.3576 79.3054 24.3576C78.3828 24.3212 77.4783 24.7217 76.8813 25.4316C76.2663 26.1416 75.9588 27.3249 75.9588 28.9815Z" fill="#7D7171"/>
<path d="M87.2106 20.8259H92.2033V33.0957H100V37.1007H87.1925V20.8259H87.2106Z" fill="#7D7171"/>
<path d="M81.7074 19.8867C86.7341 16.0747 88.2841 9.6127 85.1696 5.45346C82.055 1.29423 75.4552 1.01275 70.4286 4.82476C65.4019 8.63677 63.8519 15.0987 66.9665 19.258C70.081 23.4172 76.6808 23.6987 81.7074 19.8867Z" fill="#7D7171"/>
<path d="M81.7074 19.8866C86.7341 16.0746 88.2841 9.61267 85.1696 5.45343C82.055 1.2942 75.4552 1.01272 70.4286 4.82473C65.4019 8.63674 63.8519 15.0987 66.9665 19.2579C70.081 23.4172 76.6808 23.6987 81.7074 19.8866Z" fill="white" stroke="#7D7171" stroke-miterlimit="10"/>
<path d="M70.9841 11.1593L72.793 9.88502L75.0181 13.0708C75.398 13.5805 75.6874 14.1267 75.9045 14.7274C76.0311 15.1825 75.9949 15.674 75.814 16.1109C75.5789 16.6571 75.199 17.1122 74.6925 17.4399C74.0955 17.8586 73.589 18.0952 73.1548 18.168C72.7388 18.2409 72.3046 18.168 71.9067 17.986C71.4725 17.7676 71.0926 17.4581 70.8032 17.0576L72.3589 15.6012C72.4855 15.8015 72.6483 15.9835 72.8292 16.1291C72.9559 16.2202 73.1006 16.2748 73.2634 16.2748C73.39 16.2748 73.5166 16.2202 73.6071 16.1474C73.788 16.0381 73.9146 15.8197 73.8965 15.6012C73.8423 15.2917 73.7156 14.9823 73.5166 14.7456L70.9841 11.1593ZM76.411 13.18L78.0572 11.8693C78.2381 12.0878 78.4732 12.2516 78.7265 12.3426C79.0883 12.4519 79.4682 12.379 79.7757 12.1424C79.9928 11.9967 80.1737 11.7965 80.246 11.5416C80.3546 11.2139 80.1737 10.8499 79.848 10.7406C79.7938 10.7224 79.7395 10.7042 79.6852 10.7042C79.4682 10.686 79.0883 10.777 78.5275 11.0137C77.6049 11.396 76.8813 11.5416 76.3386 11.487C75.814 11.4324 75.3256 11.1593 75.0362 10.7042C74.8191 10.3947 74.7106 10.0307 74.6925 9.66657C74.6925 9.24787 74.801 8.82916 75.0362 8.48328C75.3799 7.99176 75.7959 7.57306 76.3025 7.24538C77.0622 6.71745 77.7315 6.46259 78.3104 6.46259C78.8893 6.46259 79.432 6.73565 79.9385 7.29999L78.3104 8.59251C77.9848 8.1738 77.3697 8.08278 76.9537 8.41046L76.8994 8.46508C76.7185 8.5743 76.5919 8.73814 76.5195 8.93839C76.4653 9.08403 76.5014 9.24787 76.5919 9.3753C76.6642 9.46632 76.7728 9.53914 76.8994 9.53914C77.0441 9.55734 77.2974 9.48452 77.6592 9.32068C78.5637 8.93839 79.2511 8.71994 79.7214 8.64712C80.1194 8.5743 80.5354 8.61071 80.9153 8.77455C81.259 8.92019 81.5485 9.17505 81.7475 9.48452C82.0007 9.84861 82.1454 10.2855 82.1635 10.7406C82.1816 11.2139 82.055 11.6691 81.8017 12.0696C81.4761 12.5611 81.0601 12.9798 80.5716 13.3075C79.5767 13.9992 78.7627 14.2905 78.1114 14.1813C77.4059 14.072 76.8271 13.708 76.411 13.18Z" fill="#7D7171"/>
</g>
<defs>
<clipPath id="clip0">
<rect width="100" height="37.3737" fill="white"/>
</clipPath>
</defs>
</svg>
