<svg width="16" height="17" viewBox="0 0 16 17" fill="none" xmlns="http://www.w3.org/2000/svg">
<g clip-path="url(#clip0)">
<path fill-rule="evenodd" clip-rule="evenodd" d="M8 0.186859C3.58 0.186859 0 3.76686 0 8.18686C0 11.7269 2.29 14.7169 5.47 15.7769C5.87 15.8469 6.02 15.6069 6.02 15.3969C6.02 15.2069 6.01 14.5769 6.01 13.9069C4 14.2769 3.48 13.4169 3.32 12.9669C3.23 12.7369 2.84 12.0269 2.5 11.8369C2.22 11.6869 1.82 11.3169 2.49 11.3069C3.12 11.2969 3.57 11.8869 3.72 12.1269C4.44 13.3369 5.59 12.9969 6.05 12.7869C6.12 12.2669 6.33 11.9169 6.56 11.7169C4.78 11.5169 2.92 10.8269 2.92 7.76686C2.92 6.89686 3.23 6.17686 3.74 5.61686C3.66 5.41686 3.38 4.59686 3.82 3.49686C3.82 3.49686 4.49 3.28686 6.02 4.31686C6.66 4.13686 7.34 4.04686 8.02 4.04686C8.7 4.04686 9.38 4.13686 10.02 4.31686C11.55 3.27686 12.22 3.49686 12.22 3.49686C12.66 4.59686 12.38 5.41686 12.3 5.61686C12.81 6.17686 13.12 6.88686 13.12 7.76686C13.12 10.8369 11.25 11.5169 9.47 11.7169C9.76 11.9669 10.01 12.4469 10.01 13.1969C10.01 14.2669 10 15.1269 10 15.3969C10 15.6069 10.15 15.8569 10.55 15.7769C12.1381 15.2407 13.5181 14.22 14.4958 12.8584C15.4734 11.4969 15.9995 9.86305 16 8.18686C16 3.76686 12.42 0.186859 8 0.186859Z" fill="#7D7171"/>
</g>
<defs>
<clipPath id="clip0">
<rect width="16" height="16" fill="white" transform="translate(0 0.186859)"/>
</clipPath>
</defs>
</svg>
